:SAMPLES-PER-SECOND 30
:FULLY-SPECIFIED
:DEGREES
581
root  -0.137293 34.5131 27.587 4.29432 26.0226 -0.141785
LeftUpLeg  -17.8652 8.91617 5.70497
LeftLeg  16.4001 7.30641 1.64221
LeftFoot  6.77397 -0.0526256 0.889176
LeftToes  -16.2465 2.60077e-006 -1.42232e-007
Spine  3.90424 4.07929 1.11253
Spine1  7.57408 8.56285 1.69807
RightShoulder  0.0989318 7.15726 2.48003
RightArm  -23.2125 -14.0192 45.1115
RightForeArm  68.5721 71.7033 32.4272
RightHand  -0.663035 5.166 -14.2657
LeftShoulder1  0.00788933 2.43669 -9.21831
LeftArm  -19.381 15.7347 -69.2657
LeftForeArm  32.2317 -26.2806 -4.98477
LeftHand  0.0130372 1.77034 0.440982
HEad  4.03937 31.2831 -14.131
RightUpLeg  -7.47547 -14.8719 -0.189097
RightLeg  10.7923 -6.68585 -0.829434
RightFoot  1.28785 0.00302952 -0.133643
RightToes  -30.2131 -0.145391 -0.253445
582
root  0.0506886 34.5339 27.5039 4.61308 27.3453 -0.0359622
LeftUpLeg  -17.926 8.04467 7.02793
LeftLeg  16.696 7.39159 1.70124
LeftFoot  5.93955 -0.0404306 0.779307
LeftToes  -15.1231 2.60077e-006 -1.42232e-007
Spine  3.8634 4.01726 0.921866
Spine1  7.49402 8.40735 1.35933
RightShoulder  0.0903139 6.74978 2.18112
RightArm  -23.852 -16.7462 45.2736
RightForeArm  71.2066 73.3861 36.4881
RightHand  -0.614002 4.92349 -13.8569
LeftShoulder1  0.00716895 2.54698 -9.22965
LeftArm  -19.5521 17.1011 -68.7687
LeftForeArm  32.421 -27.0135 -5.14716
LeftHand  0.0107807 1.77722 0.299488
HEad  3.74547 30.8154 -14.066
RightUpLeg  -7.33386 -14.7342 -0.565299
RightLeg  10.2033 -8.13612 -0.923692
RightFoot  1.80848 0.0098667 -0.247486
RightToes  -30.8123 -0.149555 -0.257572
583
root  0.290793 34.5545 27.4301 4.96488 28.4416 0.0578653
LeftUpLeg  -17.7255 7.05744 8.51888
LeftLeg  16.6651 8.32108 1.90914
LeftFoot  5.33924 -0.0364242 0.781155
LeftToes  -14.1645 2.60077e-006 -1.42232e-007
Spine  3.79861 3.91247 0.613191
Spine1  7.35971 8.16725 0.7974
RightShoulder  0.0820226 6.68888 1.92175
RightArm  -23.8293 -19.606 45.411
RightForeArm  73.2653 74.7131 40.5123
RightHand  -0.57164 4.79114 -13.248
LeftShoulder1  0.00640409 2.63808 -9.21029
LeftArm  -20.0662 18.6268 -68.1443
LeftForeArm  32.6315 -27.4108 -5.23601
LeftHand  0.00917094 1.72542 0.238092
HEad  2.98618 30.261 -13.96
RightUpLeg  -7.07432 -14.4157 -1.01731
RightLeg  9.37256 -9.51995 -0.940421
RightFoot  2.59244 0.0205823 -0.429421
RightToes  -32.314 -0.160176 -0.267723
584
root  0.587482 34.5632 27.3502 5.24568 29.3688 0.0520516
LeftUpLeg  -17.3941 6.58692 9.96707
LeftLeg  16.6312 10.1237 2.31257
LeftFoot  4.66254 -0.0336761 0.827181
LeftToes  -12.7323 2.60077e-006 -1.42232e-007
Spine  3.74937 3.82678 0.278008
Spine1  7.26462 7.96065 0.199715
RightShoulder  0.0727112 6.60723 1.80713
RightArm  -22.9312 -22.2729 45.383
RightForeArm  74.7305 75.3633 42.85
RightHand  -0.526465 4.60323 -12.6901
LeftShoulder1  0.00561354 2.80805 -9.23032
LeftArm  -20.593 19.9306 -67.5726
LeftForeArm  32.7759 -27.2192 -5.19291
LeftHand  0.00802488 1.66295 0.182209
HEad  2.1765 28.81 -13.5601
RightUpLeg  -6.7459 -14.1393 -1.48791
RightLeg  8.54257 -10.6875 -0.899183
RightFoot  3.26957 0.0310797 -0.616353
RightToes  -33.2085 -0.166628 -0.273636
585
root  0.940212 34.5507 27.2587 5.42797 30.4012 -0.0788532
LeftUpLeg  -17.238 6.80459 11.2201
LeftLeg  17.1406 12.2784 2.91153
LeftFoot  3.56695 -0.0238512 0.765974
LeftToes  -10.3452 2.60077e-006 -1.42232e-007
Spine  3.68148 3.74756 -0.0485869
Spine1  7.13858 7.76669 -0.378467
RightShoulder  0.0635861 6.56253 2.07901
RightArm  -20.9121 -25.0934 44.5899
RightForeArm  75.2203 75.6813 44.1069
RightHand  -0.471361 4.20737 -12.4283
LeftShoulder1  0.00481612 2.86139 -9.18993
LeftArm  -21.3798 21.1273 -67.1559
LeftForeArm  33.0695 -26.607 -5.05626
LeftHand  0.00572582 1.72449 0.0404903
HEad  1.32775 24.8634 -12.5717
RightUpLeg  -6.47153 -14.1683 -1.95828
RightLeg  8.03093 -11.6594 -0.875727
RightFoot  3.86174 0.0414464 -0.799752
RightToes  -34.6058 -0.176889 -0.282669
586
root  1.3545 34.5092 27.1393 5.42017 31.5448 -0.528107
LeftUpLeg  -17.3799 7.88322 12.2656
LeftLeg  18.5036 14.9324 3.89868
LeftFoot  3.00473 -0.0208262 0.794048
LeftToes  -8.2969 2.60077e-006 -1.42232e-007
Spine  3.65483 3.69626 -0.282347
Spine1  7.10473 7.628 -0.774019
RightShoulder  0.0552905 6.57323 2.16945
RightArm  -20.1793 -28.0205 44.5044
RightForeArm  75.8616 75.8169 44.6654
RightHand  -0.451347 3.9742 -12.6041
LeftShoulder1  0.00403064 2.90331 -9.11255
LeftArm  -22.4786 22.1082 -67.032
LeftForeArm  33.3599 -25.941 -4.90935
LeftHand  0.00258442 1.89754 -0.179014
HEad  0.289263 17.1698 -11.2558
RightUpLeg  -6.2555 -14.4156 -2.30396
RightLeg  7.82089 -12.4365 -0.887629
RightFoot  4.30946 0.050835 -0.95655
RightToes  -35.9511 -0.186973 -0.291127
